<?xml version="1.0" encoding="UTF-8" standalone="no"?>
<svg width="194px" height="47px" viewBox="0 0 194 47" version="1.1" xmlns="http://www.w3.org/2000/svg" xmlns:xlink="http://www.w3.org/1999/xlink" xmlns:sketch="http://www.bohemiancoding.com/sketch/ns">
	<!-- Generator: Sketch 3.4.3 (16618) - http://www.bohemiancoding.com/sketch -->
	<title>Slice 1</title>
	<desc>Created with Sketch.</desc>
	<defs></defs>
	<g id="Page-1" stroke="none" stroke-width="1" fill="none" fill-rule="evenodd" sketch:type="MSPage">
		<g id="logo" sketch:type="MSLayerGroup">
			<g id="Group" sketch:type="MSShapeGroup">
				<g id="Shape">
					<path d="M39.9,0 L16.8,0 C9.4,0 3.1,4.6 0.6,11.1 L7,11.1 C9.1,7.9 12.6,5.8 16.7,5.8 L33.9,5.8 L33.9,13.7 L39.8,13.7 L39.8,5.8 L39.8,5.8 C48.4,5.8 55.5,12 56.9,20.1 L62.7,20.1 C61.3,8.7 51.6,0 39.9,0" fill="#FF9E16"></path>
					<path d="M57.5,25.9 C56.1,34 49,40.3 40.4,40.3 C32.2,40.3 25.3,34.6 23.6,26.9 C21.8,28.1 19.7,28.8 17.3,28.8 C10.9,28.8 5.7,23.6 5.7,17.3 L5.7,17 L0,17 L0,17.3 C0,26.8 7.8,34.6 17.3,34.6 C18.3,34.6 19.3,34.5 20.2,34.3 C24.2,41.3 31.7,46.1 40.4,46.1 C52.2,46.1 61.9,37.3 63.3,26 L57.5,26 L57.5,25.9 Z" fill="#00A1DF"></path>
				</g>
				<g transform="translate(77.000000, 11.000000)" id="Shape" fill="#FFFFFF">
					<path d="M0.5,0.7 L12.5,0.7 L12.5,3.6 L3.7,3.6 L3.7,9 L11.5,9 L11.5,11.9 L3.7,11.9 L3.7,19.8 L0.5,19.8 L0.5,0.7 L0.5,0.7 Z"></path>
					<path d="M17.4,0.1 L20.5,0.1 L20.5,19.7 L17.4,19.7 L17.4,0.1 L17.4,0.1 Z"></path>
					<path d="M34.7,5.3 L37.9,5.3 L33,19.9 C32,22.8 30.8,23.9 28.7,23.9 C27.6,23.9 26.7,23.6 25.8,23.1 L26.7,20.7 C27.2,21 27.8,21.2 28.4,21.2 C29.2,21.2 29.7,20.8 30.1,19.7 L25,5.3 L28.3,5.3 L31.6,15.7 L34.7,5.3 L34.7,5.3 Z"></path>
					<path d="M40.9,5.3 L44.1,5.3 L46.6,15 L49.3,5.3 L51.9,5.3 L54.6,15 L57.1,5.3 L60.2,5.3 L56,19.8 L53.2,19.8 L50.5,10.2 L47.8,19.8 L45,19.8 L40.9,5.3 L40.9,5.3 Z"></path>
					<path d="M64.5,0.1 L67.6,0.1 L67.6,7.4 C68.4,6.1 69.6,5 71.5,5 C74.3,5 75.9,7 75.9,10 L75.9,19.6 L72.8,19.6 L72.8,10.8 C72.8,8.8 71.8,7.7 70.2,7.7 C68.6,7.7 67.5,8.9 67.5,10.9 L67.5,19.6 L64.4,19.6 L64.4,0.1 L64.5,0.1 Z"></path>
					<path d="M80.6,12.7 L80.6,12.5 C80.6,8.2 83.2,5.1 86.8,5.1 C90.7,5.1 92.8,8.4 92.8,12.7 L92.8,13.8 L83.8,13.8 C84.1,16.2 85.6,17.5 87.4,17.5 C88.8,17.5 89.8,16.9 90.7,16 L92.3,17.9 C91,19.3 89.4,20.1 87.2,20.1 C83.5,20 80.6,17.2 80.6,12.7 L80.6,12.7 Z M89.7,11.6 C89.5,9.3 88.5,7.7 86.7,7.7 C85,7.7 83.8,9.2 83.6,11.6 L89.7,11.6 L89.7,11.6 Z"></path>
					<path d="M96.9,12.7 L96.9,12.5 C96.9,8.2 99.5,5.1 103.1,5.1 C107,5.1 109.1,8.4 109.1,12.7 L109.1,13.8 L100.1,13.8 C100.4,16.2 101.9,17.5 103.7,17.5 C105.1,17.5 106.1,16.9 107,16 L108.6,17.9 C107.3,19.3 105.7,20.1 103.5,20.1 C99.7,20 96.9,17.2 96.9,12.7 L96.9,12.7 Z M106,11.6 C105.8,9.3 104.8,7.7 103,7.7 C101.3,7.7 100.1,9.2 99.9,11.6 L106,11.6 L106,11.6 Z"></path>
					<path d="M113.9,0.1 L117,0.1 L117,19.7 L113.9,19.7 L113.9,0.1 L113.9,0.1 Z"></path>
				</g>
			</g>
		</g>
	</g>
</svg>
